<mxfile host="app.diagrams.net" modified="2020-10-14T00:02:17.556Z" agent="5.0 (Windows NT 6.1) AppleWebKit/537.36 (KHTML, like Gecko) Chrome/85.0.4183.121 Safari/537.36" etag="HE70PUghC_2n-8wkkjhj" version="13.7.9" type="github">
  <diagram name="Page-1" id="74e2e168-ea6b-b213-b513-2b3c1d86103e">
    <mxGraphModel dx="593" dy="482" grid="1" gridSize="10" guides="1" tooltips="1" connect="1" arrows="1" fold="1" page="1" pageScale="1" pageWidth="1100" pageHeight="850" background="#ffffff" math="0" shadow="0">
      <root>
        <mxCell id="0" />
        <mxCell id="1" parent="0" />
        <mxCell id="CqG1S8tpj4sMc7035naE-1" value="" style="rounded=0;whiteSpace=wrap;html=1;" vertex="1" parent="1">
          <mxGeometry x="40" y="280" width="80" height="40" as="geometry" />
        </mxCell>
        <mxCell id="CqG1S8tpj4sMc7035naE-2" value="Player" style="text;html=1;strokeColor=#82b366;fillColor=#d5e8d4;align=center;verticalAlign=middle;whiteSpace=wrap;rounded=0;" vertex="1" parent="1">
          <mxGeometry x="55" y="290" width="50" height="20" as="geometry" />
        </mxCell>
        <mxCell id="CqG1S8tpj4sMc7035naE-3" value="" style="ellipse;whiteSpace=wrap;html=1;aspect=fixed;" vertex="1" parent="1">
          <mxGeometry x="260" y="260" width="80" height="80" as="geometry" />
        </mxCell>
        <mxCell id="CqG1S8tpj4sMc7035naE-4" value="Game Manager" style="text;html=1;strokeColor=#6c8ebf;fillColor=#dae8fc;align=center;verticalAlign=middle;whiteSpace=wrap;rounded=0;" vertex="1" parent="1">
          <mxGeometry x="270" y="280" width="60" height="40" as="geometry" />
        </mxCell>
        <mxCell id="CqG1S8tpj4sMc7035naE-5" style="edgeStyle=orthogonalEdgeStyle;rounded=0;orthogonalLoop=1;jettySize=auto;html=1;exitX=1;exitY=0.75;exitDx=0;exitDy=0;entryX=1;entryY=1;entryDx=0;entryDy=0;" edge="1" parent="1" source="CqG1S8tpj4sMc7035naE-4" target="CqG1S8tpj4sMc7035naE-4">
          <mxGeometry relative="1" as="geometry" />
        </mxCell>
        <mxCell id="CqG1S8tpj4sMc7035naE-6" value="" style="rounded=0;whiteSpace=wrap;html=1;" vertex="1" parent="1">
          <mxGeometry x="430" y="270" width="120" height="60" as="geometry" />
        </mxCell>
        <mxCell id="CqG1S8tpj4sMc7035naE-7" value="DataBase" style="rounded=0;whiteSpace=wrap;html=1;fillColor=#d5e8d4;strokeColor=#82b366;" vertex="1" parent="1">
          <mxGeometry x="450" y="285" width="80" height="30" as="geometry" />
        </mxCell>
        <mxCell id="CqG1S8tpj4sMc7035naE-8" value="" style="ellipse;whiteSpace=wrap;html=1;" vertex="1" parent="1">
          <mxGeometry x="130" y="170" width="100" height="70" as="geometry" />
        </mxCell>
        <mxCell id="CqG1S8tpj4sMc7035naE-9" value="Game Screen" style="text;html=1;strokeColor=#9673a6;fillColor=#e1d5e7;align=center;verticalAlign=middle;whiteSpace=wrap;rounded=0;" vertex="1" parent="1">
          <mxGeometry x="150" y="190" width="60" height="30" as="geometry" />
        </mxCell>
        <mxCell id="CqG1S8tpj4sMc7035naE-10" value="player interaction" style="endArrow=classic;startArrow=classic;html=1;" edge="1" parent="1">
          <mxGeometry width="50" height="50" relative="1" as="geometry">
            <mxPoint x="90" y="280" as="sourcePoint" />
            <mxPoint x="140" y="230" as="targetPoint" />
          </mxGeometry>
        </mxCell>
        <mxCell id="CqG1S8tpj4sMc7035naE-11" value="Game physics&amp;nbsp;" style="endArrow=classic;startArrow=classic;html=1;entryX=0;entryY=0;entryDx=0;entryDy=0;" edge="1" parent="1" target="CqG1S8tpj4sMc7035naE-3">
          <mxGeometry width="50" height="50" relative="1" as="geometry">
            <mxPoint x="230" y="220" as="sourcePoint" />
            <mxPoint x="260" y="270" as="targetPoint" />
            <Array as="points">
              <mxPoint x="240" y="240" />
            </Array>
          </mxGeometry>
        </mxCell>
        <mxCell id="CqG1S8tpj4sMc7035naE-14" value="user&amp;nbsp; prog" style="endArrow=classic;html=1;exitX=1;exitY=0;exitDx=0;exitDy=0;" edge="1" parent="1" source="CqG1S8tpj4sMc7035naE-3">
          <mxGeometry width="50" height="50" relative="1" as="geometry">
            <mxPoint x="360" y="350" as="sourcePoint" />
            <mxPoint x="420" y="280" as="targetPoint" />
          </mxGeometry>
        </mxCell>
        <mxCell id="CqG1S8tpj4sMc7035naE-15" value="credentials" style="endArrow=classic;html=1;entryX=1;entryY=0.75;entryDx=0;entryDy=0;entryPerimeter=0;" edge="1" parent="1" target="CqG1S8tpj4sMc7035naE-3">
          <mxGeometry width="50" height="50" relative="1" as="geometry">
            <mxPoint x="420" y="310" as="sourcePoint" />
            <mxPoint x="350" y="310" as="targetPoint" />
          </mxGeometry>
        </mxCell>
        <mxCell id="CqG1S8tpj4sMc7035naE-17" value="astroifs in game" style="ellipse;whiteSpace=wrap;html=1;aspect=fixed;fillColor=#f8cecc;strokeColor=#b85450;" vertex="1" parent="1">
          <mxGeometry x="150" y="360" width="70" height="70" as="geometry" />
        </mxCell>
        <mxCell id="CqG1S8tpj4sMc7035naE-18" value="detecting collisions" style="endArrow=classic;startArrow=classic;html=1;" edge="1" parent="1">
          <mxGeometry width="50" height="50" relative="1" as="geometry">
            <mxPoint x="220" y="380" as="sourcePoint" />
            <mxPoint x="270" y="330" as="targetPoint" />
          </mxGeometry>
        </mxCell>
        <mxCell id="CqG1S8tpj4sMc7035naE-19" value="A* regular" style="endArrow=classic;startArrow=classic;html=1;entryX=0.5;entryY=1;entryDx=0;entryDy=0;exitX=0.414;exitY=-0.029;exitDx=0;exitDy=0;exitPerimeter=0;" edge="1" parent="1" source="CqG1S8tpj4sMc7035naE-17" target="CqG1S8tpj4sMc7035naE-8">
          <mxGeometry width="50" height="50" relative="1" as="geometry">
            <mxPoint x="270" y="240" as="sourcePoint" />
            <mxPoint x="320" y="190" as="targetPoint" />
          </mxGeometry>
        </mxCell>
        <mxCell id="CqG1S8tpj4sMc7035naE-20" value="DFD Level1" style="shape=process;whiteSpace=wrap;html=1;backgroundOutline=1;fillColor=#fff2cc;strokeColor=#d6b656;" vertex="1" parent="1">
          <mxGeometry x="260" y="100" width="80" height="40" as="geometry" />
        </mxCell>
      </root>
    </mxGraphModel>
  </diagram>
</mxfile>
